<svg width="1242" height="193" viewBox="0 0 1242 193" fill="none" xmlns="http://www.w3.org/2000/svg">
<path d="M108.059 111.359C113.545 112.895 118.16 116.631 120.822 121.691C123.484 126.751 123.957 132.688 122.131 138.11L115.945 156.473C123.016 156.737 129.72 159.075 135.356 163.2C140.973 159.088 147.651 156.751 154.698 156.475L148.657 139.843C146.825 134.424 147.294 128.487 149.947 123.423C152.601 118.359 157.209 112.87 162.694 111.328C175.728 107.663 217.139 87.046 192.825 57.4902C192.364 56.9302 191.678 56.608 190.955 56.6118C190.232 56.6157 189.547 56.9441 189.093 57.5092C185.194 62.3554 175.347 73.1911 165.394 72.9807C153.835 72.736 141.294 76.1882 135.361 84.7948C129.418 76.1951 116.873 72.7575 105.315 73.0153C95.362 73.2375 85.5029 62.4132 81.5986 57.5712C81.143 57.0064 80.4592 56.6773 79.7361 56.6745C79.0127 56.6717 78.3268 56.996 77.8664 57.5566C53.5856 87.1405 95.0201 107.71 108.059 111.359Z" fill="#BEBEBE"/>
<path d="M12.7835 125.774C12.7835 119.188 11.6778 114.669 9.46632 112.215C7.38492 109.762 4.32787 108.535 0.295166 108.535V95.9455C4.32787 95.9455 7.38492 94.6542 9.46632 92.0717C11.6778 89.4892 12.7835 85.3571 12.7835 79.6756V31.8344C12.7835 25.7655 13.9543 20.9878 16.2959 17.5014C18.7676 13.8859 22.7352 12.0781 28.1989 12.0781H42.6386V24.6679H35.0285C32.0364 24.6679 29.89 25.5072 28.5891 27.1859C27.4184 28.7354 26.833 31.5762 26.833 35.7082V82.9683C26.833 88.6499 25.7272 92.9756 23.5157 95.9455C21.4343 98.9154 18.8976 100.723 15.9056 101.369V102.531C18.8976 103.047 21.4343 105.049 23.5157 108.535C25.7272 111.893 26.833 116.283 26.833 121.706V168.773C26.833 172.775 27.4184 175.616 28.5891 177.295C29.89 178.973 32.1015 179.813 35.2236 179.813H42.6386V192.403H28.1989C17.922 192.403 12.7835 185.882 12.7835 172.84V125.774Z" fill="#18A0D8"/>
<path d="M254.278 78.7069C254.278 85.2923 255.384 89.8117 257.595 92.2651C259.677 94.7185 262.734 95.9452 266.766 95.9452L266.766 108.535C262.734 108.535 259.677 109.826 257.595 112.409C255.384 114.991 254.278 119.123 254.278 124.805L254.278 172.646C254.278 178.715 253.107 183.493 250.766 186.979C248.294 190.595 244.326 192.402 238.863 192.402L224.423 192.402L224.423 179.813L232.033 179.813C235.025 179.813 237.172 178.973 238.472 177.295C239.643 175.745 240.229 172.904 240.229 168.772L240.229 121.512C240.229 115.831 241.334 111.505 243.546 108.535C245.627 105.565 248.164 103.757 251.156 103.112L251.156 101.95C248.164 101.433 245.627 99.4316 243.546 95.9452C241.334 92.5879 240.229 88.1977 240.229 82.7744L240.229 35.7079C240.229 31.705 239.643 28.8642 238.472 27.1856C237.171 25.507 234.96 24.6677 231.838 24.6677L224.423 24.6677L224.423 12.0779L238.863 12.0779C249.14 12.0779 254.278 18.5987 254.278 31.6405L254.278 78.7069Z" fill="#18A0D8"/>
<path d="M394.601 66.2669C403.721 66.2669 410.249 68.4269 414.185 72.7469C418.121 76.9709 420.089 84.0269 420.089 93.9149V133.227C420.089 137.259 418.073 139.275 414.041 139.275C410.009 139.275 407.993 137.259 407.993 133.227V93.9149C407.993 88.4429 406.937 84.5069 404.825 82.1069C402.713 79.6109 399.305 78.3629 394.601 78.3629H388.697C383.225 78.3629 379.289 79.6109 376.889 82.1069C374.585 84.5069 373.433 88.4429 373.433 93.9149V133.227C373.433 137.259 371.417 139.275 367.385 139.275C363.353 139.275 361.337 137.259 361.337 133.227V93.9149C361.337 88.4429 360.281 84.5069 358.169 82.1069C356.057 79.6109 352.649 78.3629 347.945 78.3629H342.041C336.569 78.3629 332.633 79.6109 330.233 82.1069C327.929 84.5069 326.777 88.4429 326.777 93.9149V133.227C326.777 137.259 324.761 139.275 320.729 139.275C316.697 139.275 314.681 137.259 314.681 133.227V72.3149C314.681 68.2829 316.697 66.2669 320.729 66.2669C324.761 66.2669 326.777 68.2829 326.777 72.3149V75.6269C329.273 72.3629 332.057 70.0109 335.129 68.5709C338.201 67.0349 341.849 66.2669 346.073 66.2669H347.945C353.897 66.2669 358.553 67.0829 361.913 68.7149C365.369 70.3469 367.961 73.0349 369.689 76.7789C372.281 72.9389 374.969 70.2509 377.753 68.7149C380.633 67.0829 384.281 66.2669 388.697 66.2669H394.601ZM462.092 168.075C448.268 168.075 441.356 161.115 441.356 147.195C441.356 143.163 443.372 141.147 447.404 141.147C451.436 141.147 453.452 143.163 453.452 147.195C453.452 150.843 453.98 153.195 455.036 154.251C456.188 155.403 458.54 155.979 462.092 155.979H490.028C493.58 155.979 495.884 155.403 496.94 154.251C498.092 153.099 498.668 150.747 498.668 147.195V128.907C495.98 132.939 492.812 135.675 489.164 137.115C485.612 138.555 481.292 139.275 476.204 139.275H469.148C459.644 139.275 452.636 137.019 448.124 132.507C443.612 127.995 441.356 121.035 441.356 111.627V72.3149C441.356 68.2829 443.372 66.2669 447.404 66.2669C451.436 66.2669 453.452 68.2829 453.452 72.3149V111.627C453.452 115.755 453.884 118.923 454.748 121.131C455.708 123.339 457.292 124.923 459.5 125.883C461.804 126.747 465.02 127.179 469.148 127.179H476.204C483.98 127.179 489.644 125.931 493.196 123.435C496.844 120.843 498.668 116.907 498.668 111.627V72.3149C498.668 68.2829 500.684 66.2669 504.716 66.2669C508.748 66.2669 510.764 68.2829 510.764 72.3149V147.195C510.764 161.115 503.852 168.075 490.028 168.075H462.092ZM565.727 127.179C569.759 127.179 571.775 129.195 571.775 133.227C571.775 135.147 571.247 136.635 570.191 137.691C569.135 138.747 567.647 139.275 565.727 139.275C556.223 139.275 549.215 137.019 544.703 132.507C540.191 127.995 537.935 121.035 537.935 111.627V78.3629H530.879C528.959 78.3629 527.471 77.8349 526.415 76.7789C525.359 75.7229 524.831 74.2349 524.831 72.3149C524.831 68.2829 526.847 66.2669 530.879 66.2669H537.935V55.7549C537.935 53.8349 538.463 52.3469 539.519 51.2909C540.575 50.2349 542.063 49.7069 543.983 49.7069C545.903 49.7069 547.391 50.2349 548.447 51.2909C549.503 52.3469 550.031 53.8349 550.031 55.7549V66.2669H566.591C570.623 66.2669 572.639 68.2829 572.639 72.3149C572.639 74.2349 572.111 75.7229 571.055 76.7789C569.999 77.8349 568.511 78.3629 566.591 78.3629H550.031V111.627C550.031 115.755 550.511 118.923 551.471 121.131C552.431 123.339 554.015 124.923 556.223 125.883C558.431 126.747 561.599 127.179 565.727 127.179ZM592.353 107.739V111.195C592.353 115.419 592.833 118.683 593.793 120.987C594.753 123.195 596.385 124.779 598.689 125.739C600.993 126.699 604.257 127.179 608.481 127.179H620.289C625.185 127.179 628.785 126.747 631.089 125.883C633.489 124.923 635.073 123.291 635.841 120.987C636.417 119.067 637.185 117.675 638.145 116.811C639.105 115.851 640.497 115.371 642.321 115.371C644.145 115.371 645.537 115.803 646.497 116.667C647.553 117.435 648.081 118.587 648.081 120.123C648.081 120.795 648.033 121.275 647.937 121.563C645.825 133.371 636.609 139.275 620.289 139.275H608.481C598.881 139.275 591.777 136.971 587.169 132.363C582.561 127.755 580.257 120.699 580.257 111.195V94.4909C580.257 84.7949 582.561 77.6429 587.169 73.0349C591.777 68.4269 598.881 66.1709 608.481 66.2669H620.289C629.889 66.2669 636.993 68.5709 641.601 73.1789C646.209 77.7869 648.513 84.8909 648.513 94.4909V101.691C648.513 103.611 647.985 105.099 646.929 106.155C645.873 107.211 644.385 107.739 642.465 107.739H592.353ZM592.353 95.6429H636.417V94.4909C636.417 90.2669 635.937 87.0029 634.977 84.6989C634.017 82.3949 632.385 80.7629 630.081 79.8029C627.777 78.8429 624.513 78.3629 620.289 78.3629H608.481C604.257 78.2669 600.993 78.6989 598.689 79.6589C596.385 80.6189 594.753 82.2509 593.793 84.5549C592.833 86.8589 592.353 90.1709 592.353 94.4909V95.6429ZM718.427 129.195C719.483 130.731 720.011 132.075 720.011 133.227C720.011 134.763 719.147 136.251 717.419 137.691C716.075 138.747 714.779 139.275 713.531 139.275C711.707 139.275 710.171 138.363 708.923 136.539L688.043 109.323L668.891 136.395C667.547 138.315 665.963 139.275 664.139 139.275C662.891 139.275 661.643 138.795 660.395 137.835C658.571 136.395 657.659 134.859 657.659 133.227C657.659 131.883 658.139 130.587 659.099 129.339L680.411 99.2429L662.699 76.2029C661.643 74.8589 661.115 73.5629 661.115 72.3149C661.115 70.5869 662.027 69.0989 663.851 67.8509C665.195 66.7949 666.491 66.2669 667.739 66.2669C669.371 66.2669 670.859 67.1309 672.203 68.8589L688.907 90.6029L705.323 68.8589C706.571 67.0349 708.107 66.1229 709.931 66.1229C711.179 66.1229 712.475 66.6509 713.819 67.7069C715.547 68.9549 716.411 70.4909 716.411 72.3149C716.411 73.6589 715.931 74.9549 714.971 76.2029L696.395 100.539L718.427 129.195ZM766.697 127.179C770.729 127.179 772.745 129.195 772.745 133.227C772.745 135.147 772.217 136.635 771.161 137.691C770.105 138.747 768.617 139.275 766.697 139.275C757.193 139.275 750.185 137.019 745.673 132.507C741.161 127.995 738.905 121.035 738.905 111.627V78.3629H731.849C729.929 78.3629 728.441 77.8349 727.385 76.7789C726.329 75.7229 725.801 74.2349 725.801 72.3149C725.801 68.2829 727.817 66.2669 731.849 66.2669H738.905V55.7549C738.905 53.8349 739.433 52.3469 740.489 51.2909C741.545 50.2349 743.033 49.7069 744.953 49.7069C746.873 49.7069 748.361 50.2349 749.417 51.2909C750.473 52.3469 751.001 53.8349 751.001 55.7549V66.2669H767.561C771.593 66.2669 773.609 68.2829 773.609 72.3149C773.609 74.2349 773.081 75.7229 772.025 76.7789C770.969 77.8349 769.481 78.3629 767.561 78.3629H751.001V111.627C751.001 115.755 751.481 118.923 752.441 121.131C753.401 123.339 754.985 124.923 757.193 125.883C759.401 126.747 762.569 127.179 766.697 127.179Z" fill="#18A0D8"/>
<path d="M829.761 66.2669C839.361 66.2669 846.465 68.5709 851.073 73.1789C855.681 77.7869 857.985 84.8909 857.985 94.4909V133.227C857.985 135.147 857.457 136.635 856.401 137.691C855.345 138.747 853.857 139.275 851.937 139.275C850.017 139.275 848.529 138.747 847.473 137.691C846.417 136.635 845.889 135.147 845.889 133.227V94.4909C845.889 90.2669 845.409 87.0029 844.449 84.6989C843.489 82.3949 841.857 80.7629 839.553 79.8029C837.249 78.8429 833.985 78.3629 829.761 78.3629H825.729C819.393 78.3629 814.449 79.1789 810.897 80.8109C807.345 82.4429 805.041 84.9389 803.985 88.2989C803.889 88.7789 803.649 89.4989 803.265 90.4589V133.227C803.265 135.147 802.737 136.635 801.681 137.691C800.625 138.747 799.137 139.275 797.217 139.275C795.297 139.275 793.809 138.747 792.753 137.691C791.697 136.635 791.169 135.147 791.169 133.227V91.4669C790.689 90.6989 790.449 89.8829 790.449 89.0189C790.449 88.4429 790.497 88.0109 790.593 87.7229C790.785 86.7629 790.977 85.9949 791.169 85.4189V43.9469C791.169 42.0269 791.697 40.5389 792.753 39.4829C793.809 38.4269 795.297 37.8989 797.217 37.8989C799.137 37.8989 800.625 38.4269 801.681 39.4829C802.737 40.5389 803.265 42.0269 803.265 43.9469V70.8749C809.121 67.8029 816.609 66.2669 825.729 66.2669H829.761ZM892.256 107.739V111.195C892.256 115.419 892.736 118.683 893.696 120.987C894.656 123.195 896.288 124.779 898.592 125.739C900.896 126.699 904.16 127.179 908.384 127.179H920.192C925.088 127.179 928.688 126.747 930.992 125.883C933.392 124.923 934.976 123.291 935.744 120.987C936.32 119.067 937.088 117.675 938.048 116.811C939.008 115.851 940.4 115.371 942.224 115.371C944.048 115.371 945.44 115.803 946.4 116.667C947.456 117.435 947.984 118.587 947.984 120.123C947.984 120.795 947.936 121.275 947.84 121.563C945.728 133.371 936.512 139.275 920.192 139.275H908.384C898.784 139.275 891.68 136.971 887.072 132.363C882.464 127.755 880.16 120.699 880.16 111.195V94.4909C880.16 84.7949 882.464 77.6429 887.072 73.0349C891.68 68.4269 898.784 66.1709 908.384 66.2669H920.192C929.792 66.2669 936.896 68.5709 941.504 73.1789C946.112 77.7869 948.416 84.8909 948.416 94.4909V101.691C948.416 103.611 947.888 105.099 946.832 106.155C945.776 107.211 944.288 107.739 942.368 107.739H892.256ZM892.256 95.6429H936.32V94.4909C936.32 90.2669 935.84 87.0029 934.88 84.6989C933.92 82.3949 932.288 80.7629 929.984 79.8029C927.68 78.8429 924.416 78.3629 920.192 78.3629H908.384C904.16 78.2669 900.896 78.6989 898.592 79.6589C896.288 80.6189 894.656 82.2509 893.696 84.5549C892.736 86.8589 892.256 90.1709 892.256 94.4909V95.6429ZM993.745 139.275C986.449 139.275 980.977 137.499 977.329 133.947C973.777 130.299 972.001 124.779 972.001 117.387V43.9469C972.001 42.0269 972.529 40.5389 973.585 39.4829C974.641 38.4269 976.129 37.8989 978.049 37.8989C979.969 37.8989 981.457 38.4269 982.513 39.4829C983.569 40.5389 984.097 42.0269 984.097 43.9469V117.387C984.097 121.323 984.721 123.963 985.969 125.307C987.313 126.555 989.905 127.179 993.745 127.179C997.873 127.179 999.937 129.195 999.937 133.227C1000.03 135.147 999.553 136.635 998.497 137.691C997.441 138.747 995.857 139.275 993.745 139.275ZM1054.15 66.2669C1063.75 66.2669 1070.86 68.5709 1075.47 73.1789C1080.07 77.7869 1082.38 84.8909 1082.38 94.4909V111.051C1082.38 120.651 1080.07 127.755 1075.47 132.363C1070.86 136.971 1063.75 139.275 1054.15 139.275H1026.22V162.027C1026.22 163.947 1025.69 165.435 1024.63 166.491C1023.58 167.547 1022.09 168.075 1020.17 168.075C1018.25 168.075 1016.76 167.547 1015.71 166.491C1014.65 165.435 1014.12 163.947 1014.12 162.027V72.3149C1014.12 70.3949 1014.65 68.9069 1015.71 67.8509C1016.76 66.7949 1018.25 66.2669 1020.17 66.2669C1022.09 66.2669 1023.58 66.7949 1024.63 67.8509C1025.69 68.9069 1026.22 70.3949 1026.22 72.3149V74.1869C1031.5 68.9069 1038.99 66.2669 1048.68 66.2669H1054.15ZM1070.28 94.4909C1070.28 90.2669 1069.8 87.0029 1068.84 84.6989C1067.88 82.3949 1066.25 80.7629 1063.95 79.8029C1061.64 78.8429 1058.38 78.3629 1054.15 78.3629H1048.68C1042.35 78.3629 1037.07 79.1309 1032.84 80.6669C1028.71 82.2029 1026.51 84.4589 1026.22 87.4349V127.179H1054.15C1058.38 127.179 1061.64 126.699 1063.95 125.739C1066.25 124.779 1067.88 123.147 1068.84 120.843C1069.8 118.539 1070.28 115.275 1070.28 111.051V94.4909ZM1114.66 107.739V111.195C1114.66 115.419 1115.14 118.683 1116.1 120.987C1117.06 123.195 1118.69 124.779 1121 125.739C1123.3 126.699 1126.57 127.179 1130.79 127.179H1142.6C1147.49 127.179 1151.09 126.747 1153.4 125.883C1155.8 124.923 1157.38 123.291 1158.15 120.987C1158.73 119.067 1159.49 117.675 1160.45 116.811C1161.41 115.851 1162.81 115.371 1164.63 115.371C1166.45 115.371 1167.85 115.803 1168.81 116.667C1169.86 117.435 1170.39 118.587 1170.39 120.123C1170.39 120.795 1170.34 121.275 1170.25 121.563C1168.13 133.371 1158.92 139.275 1142.6 139.275H1130.79C1121.19 139.275 1114.09 136.971 1109.48 132.363C1104.87 127.755 1102.57 120.699 1102.57 111.195V94.4909C1102.57 84.7949 1104.87 77.6429 1109.48 73.0349C1114.09 68.4269 1121.19 66.1709 1130.79 66.2669H1142.6C1152.2 66.2669 1159.3 68.5709 1163.91 73.1789C1168.52 77.7869 1170.82 84.8909 1170.82 94.4909V101.691C1170.82 103.611 1170.29 105.099 1169.24 106.155C1168.18 107.211 1166.69 107.739 1164.77 107.739H1114.66ZM1114.66 95.6429H1158.73V94.4909C1158.73 90.2669 1158.25 87.0029 1157.29 84.6989C1156.33 82.3949 1154.69 80.7629 1152.39 79.8029C1150.09 78.8429 1146.82 78.3629 1142.6 78.3629H1130.79C1126.57 78.2669 1123.3 78.6989 1121 79.6589C1118.69 80.6189 1117.06 82.2509 1116.1 84.5549C1115.14 86.8589 1114.66 90.1709 1114.66 94.4909V95.6429ZM1232.42 66.2669C1234.34 66.2669 1235.83 66.7949 1236.89 67.8509C1237.94 68.9069 1238.47 70.3949 1238.47 72.3149C1238.47 74.2349 1237.94 75.7229 1236.89 76.7789C1235.83 77.8349 1234.34 78.3629 1232.42 78.3629C1224.26 78.3629 1217.93 79.8989 1213.42 82.9709C1209 85.9469 1206.7 90.0269 1206.5 95.2109V133.227C1206.5 135.147 1205.98 136.635 1204.92 137.691C1203.86 138.747 1202.38 139.275 1200.46 139.275C1198.54 139.275 1197.05 138.747 1195.99 137.691C1194.94 136.635 1194.41 135.147 1194.41 133.227V72.3149C1194.41 68.2829 1196.42 66.2669 1200.46 66.2669C1204.49 66.2669 1206.5 68.2829 1206.5 72.3149V77.9309C1212.36 70.1549 1221 66.2669 1232.42 66.2669Z" fill="#BEBEBE"/>
</svg>
